<!-- WS artwork, 2026. Authorship, fonts, colours and licences: artwork/ARTWORK-RECORD.md -->
<svg xmlns="http://www.w3.org/2000/svg" width="988" height="340" viewBox="0 0 988 340"><title>WS, WS-MAP, EME65</title><defs><radialGradient id="i0sea" cx="38%" cy="32%" r="75%"><stop offset="0" stop-color="#5fb4ff"/><stop offset="0.55" stop-color="#1f6fd1"/><stop offset="1" stop-color="#0b2f73"/></radialGradient><radialGradient id="i0shine" cx="35%" cy="28%" r="40%"><stop offset="0" stop-color="#fff" stop-opacity="0.55"/><stop offset="1" stop-color="#fff" stop-opacity="0"/></radialGradient><radialGradient id="i0moon" cx="40%" cy="35%" r="70%"><stop offset="0" stop-color="#fdfdf8"/><stop offset="1" stop-color="#a3a8b1"/></radialGradient></defs><clipPath id="i0clip128x128"><circle cx="128.0" cy="128.0" r="125.0"/></clipPath><circle cx="128.0" cy="128.0" r="125.0" fill="url(#i0sea)"/><path d="M87.8,246.4 L90.4,247.2 L93.1,247.9 L95.8,248.6 L98.7,249.2 L101.6,249.8 L104.6,250.3 L107.7,250.7 L110.8,251.1 L113.9,251.4 L117.1,251.7 L120.4,251.9 L123.6,252.0 L126.9,252.1 L130.2,252.1 L133.4,252.0 L136.7,251.8 L139.9,251.6 L143.1,251.3 L146.3,251.0 L149.4,250.6 L152.4,250.1 L155.4,249.6 L158.3,249.0 L161.1,248.4 L163.8,247.7 L166.5,246.9 L169.0,246.1 M24.5,197.9 L26.3,200.0 L28.4,202.1 L30.7,204.1 L33.3,206.0 L36.2,207.9 L39.3,209.8 L42.7,211.6 L46.3,213.3 L50.1,214.9 L54.2,216.5 L58.4,217.9 L62.9,219.3 L67.5,220.6 L72.2,221.8 L77.2,222.9 L82.3,223.9 L87.4,224.7 L92.8,225.5 L98.2,226.2 L103.6,226.7 L109.2,227.2 L114.8,227.5 L120.4,227.7 L126.1,227.8 L131.8,227.8 L137.4,227.7 L143.1,227.4 L148.7,227.1 L154.2,226.6 L159.7,226.0 L165.0,225.3 L170.3,224.5 L175.5,223.5 L180.5,222.5 L185.4,221.4 L190.1,220.2 L194.6,218.9 L199.0,217.5 L203.2,216.0 L207.2,214.4 L210.9,212.7 L214.5,211.0 L217.7,209.2 L220.8,207.3 L223.6,205.4 L226.1,203.4 L228.4,201.4 L230.4,199.3 L232.1,197.2 M3.1,129.7 L3.5,132.3 L4.2,134.8 L5.3,137.3 L6.7,139.8 L8.5,142.3 L10.5,144.7 L12.9,147.1 L15.7,149.4 L18.7,151.7 L22.0,153.9 L25.6,156.0 L29.5,158.1 L33.7,160.0 L38.1,161.9 L42.8,163.7 L47.7,165.4 L52.8,167.0 L58.1,168.5 L63.6,169.9 L69.3,171.1 L75.2,172.3 L81.2,173.3 L87.3,174.2 L93.5,174.9 L99.9,175.6 L106.3,176.1 L112.8,176.5 L119.3,176.7 L125.8,176.8 L132.4,176.8 L138.9,176.7 L145.4,176.4 L151.9,175.9 L158.2,175.4 L164.5,174.7 L170.8,173.9 L176.8,173.0 L182.8,171.9 L188.6,170.7 L194.2,169.4 L199.7,168.0 L205.0,166.5 L210.0,164.9 L214.8,163.1 L219.4,161.3 L223.8,159.4 L227.8,157.4 L231.6,155.3 L235.1,153.2 L238.4,150.9 L241.3,148.6 L243.9,146.3 L246.2,143.9 L248.2,141.5 L249.8,139.0 L251.1,136.5 L252.1,134.0 L252.7,131.4 L253.0,128.9 M22.5,61.0 L21.4,63.1 L20.6,65.3 L20.0,67.5 L19.8,69.7 L19.8,71.9 L20.2,74.2 L20.8,76.4 L21.7,78.5 L23.0,80.7 L24.5,82.8 L26.3,84.9 L28.4,87.0 L30.7,89.0 L33.3,91.0 L36.2,92.9 L39.3,94.7 L42.7,96.5 L46.3,98.2 L50.1,99.9 L54.2,101.4 L58.4,102.9 L62.9,104.2 L67.5,105.5 L72.2,106.7 L77.2,107.8 L82.3,108.8 L87.4,109.7 L92.8,110.5 L98.2,111.1 L103.6,111.7 L109.2,112.1 L114.8,112.5 L120.4,112.7 L126.1,112.8 L131.8,112.7 L137.4,112.6 L143.1,112.4 L148.7,112.0 L154.2,111.5 L159.7,110.9 L165.0,110.2 L170.3,109.4 L175.5,108.5 L180.5,107.5 L185.4,106.3 L190.1,105.1 L194.6,103.8 L199.0,102.4 L203.2,100.9 L207.2,99.3 L210.9,97.7 L214.5,95.9 L217.7,94.1 L220.8,92.3 L223.6,90.3 L226.1,88.3 L228.4,86.3 L230.4,84.2 L232.1,82.1 L233.5,80.0 L234.6,77.8 L235.4,75.6 L236.0,73.4 L236.2,71.2 L236.2,69.0 L235.8,66.8 L235.2,64.6 L234.3,62.4 L233.0,60.2 M84.6,10.8 L82.3,11.7 L80.1,12.7 L78.1,13.7 L76.2,14.7 L74.4,15.8 L72.8,16.9 L71.4,18.0 L70.1,19.2 L68.9,20.4 L67.9,21.6 L67.1,22.9 L66.4,24.1 L66.0,25.4 L65.7,26.6 L65.5,27.9 L65.5,29.2 L65.7,30.5 L66.1,31.8 L66.6,33.0 L67.4,34.3 L68.2,35.5 L69.3,36.7 L70.5,37.9 L71.8,39.1 L73.3,40.2 L75.0,41.3 L76.8,42.4 L78.7,43.4 L80.8,44.4 L83.0,45.3 L85.4,46.2 L87.8,47.1 L90.4,47.9 L93.1,48.6 L95.8,49.3 L98.7,49.9 L101.6,50.5 L104.6,51.0 L107.7,51.4 L110.8,51.8 L113.9,52.1 L117.1,52.4 L120.4,52.6 L123.6,52.7 L126.9,52.8 L130.2,52.8 L133.4,52.7 L136.7,52.5 L139.9,52.3 L143.1,52.0 L146.3,51.7 L149.4,51.3 L152.4,50.8 L155.4,50.3 L158.3,49.7 L161.1,49.1 L163.8,48.4 L166.5,47.6 L169.0,46.8 L171.4,45.9 L173.7,45.0 L175.9,44.0 L177.9,43.0 L179.8,42.0 L181.6,40.9 L183.2,39.8 L184.6,38.7 L185.9,37.5 L187.1,36.3 L188.1,35.1 L188.9,33.8 L189.6,32.6 L190.0,31.3 L190.3,30.1 L190.5,28.8 L190.5,27.5 L190.3,26.2 L189.9,25.0 L189.4,23.7 L188.6,22.4 L187.8,21.2 L186.7,20.0 L185.5,18.8 L184.2,17.6 L182.7,16.5 L181.0,15.4 L179.2,14.3 L177.3,13.3 L175.2,12.3 L173.0,11.4 L170.6,10.5 M110.6,4.2 L112.7,4.1 L114.8,4.4 L116.9,5.0 L119.1,5.9 L121.3,7.2 L123.5,8.8 L125.8,10.7 L128.0,12.9 M75.8,14.4 L80.1,12.7 L84.5,11.2 L89.1,10.1 L93.7,9.3 L98.4,8.9 L103.2,8.7 L108.1,8.9 L113.0,9.4 L118.0,10.3 L123.0,11.5 L128.0,12.9 M15.5,73.5 L18.3,68.2 L21.4,63.1 L24.8,58.2 L28.4,53.5 L32.3,49.0 L36.5,44.7 L41.0,40.6 L45.6,36.8 L50.5,33.2 L55.6,29.9 L61.0,26.9 L66.4,24.1 L72.1,21.6 L77.9,19.4 L83.9,17.5 L90.0,15.9 L96.1,14.7 L102.4,13.7 L108.7,13.0 L115.1,12.7 L121.6,12.7 L128.0,12.9 M33.0,209.1 L29.5,204.7 L26.3,200.0 L23.3,195.1 L20.7,190.1 L18.3,184.8 L16.3,179.4 L14.5,173.9 L13.1,168.3 L12.0,162.5 L11.2,156.6 L10.7,150.7 L10.5,144.7 L10.7,138.7 L11.2,132.6 L12.0,126.5 L13.1,120.4 L14.5,114.4 L16.3,108.3 L18.3,102.4 L20.7,96.5 L23.3,90.6 L26.3,84.9 L29.5,79.3 L33.0,73.9 L36.7,68.6 L40.7,63.4 L44.9,58.5 L49.4,53.7 L54.1,49.1 L59.0,44.7 L64.0,40.6 L69.3,36.7 L74.7,33.1 L80.2,29.7 L85.9,26.6 L91.7,23.7 L97.6,21.2 L103.6,18.9 L109.6,17.0 L115.7,15.3 L121.9,14.0 L128.0,12.9 M87.8,246.4 L84.2,244.9 L80.8,243.1 L77.4,241.0 L74.2,238.5 L71.2,235.8 L68.3,232.8 L65.6,229.5 L63.0,225.9 L60.6,222.0 L58.4,217.9 L56.4,213.6 L54.6,209.0 L53.0,204.2 L51.6,199.1 L50.4,193.9 L49.4,188.5 L48.6,183.0 L48.1,177.2 L47.8,171.4 L47.7,165.4 L47.8,159.3 L48.1,153.2 L48.6,147.0 L49.4,140.7 L50.4,134.4 L51.6,128.0 L53.0,121.7 L54.6,115.4 L56.4,109.1 L58.4,102.9 L60.6,96.7 L63.0,90.6 L65.6,84.7 L68.3,78.8 L71.2,73.1 L74.2,67.5 L77.4,62.1 L80.8,56.9 L84.2,51.9 L87.8,47.1 L91.5,42.5 L95.3,38.1 L99.2,34.0 L103.2,30.1 L107.2,26.5 L111.3,23.2 L115.4,20.2 L119.6,17.5 L123.8,15.1 L128.0,12.9 M119.2,252.7 L118.1,252.4 L117.1,251.7 L116.2,250.7 L115.2,249.4 L114.3,247.7 L113.5,245.7 L112.7,243.4 L111.9,240.7 L111.1,237.8 L110.4,234.5 L109.8,231.0 L109.2,227.2 L108.7,223.1 L108.2,218.7 L107.7,214.1 L107.4,209.3 L107.0,204.2 L106.8,199.0 L106.6,193.5 L106.4,187.9 L106.3,182.1 L106.3,176.1 L106.3,170.0 L106.4,163.8 L106.6,157.5 L106.8,151.1 L107.0,144.7 L107.4,138.2 L107.7,131.7 L108.2,125.1 L108.7,118.6 L109.2,112.1 L109.8,105.7 L110.4,99.3 L111.1,93.0 L111.9,86.8 L112.7,80.6 L113.5,74.7 L114.3,68.8 L115.2,63.2 L116.2,57.7 L117.1,52.4 L118.1,47.3 L119.2,42.4 L120.2,37.8 L121.3,33.4 L122.4,29.3 L123.5,25.5 L124.6,21.9 L125.7,18.6 L126.9,15.6 L128.0,12.9 M147.4,251.4 L149.4,250.6 L151.3,249.5 L153.1,248.1 L154.9,246.3 L156.6,244.2 L158.2,241.8 L159.8,239.1 L161.2,236.1 L162.6,232.8 L163.9,229.2 L165.0,225.3 L166.1,221.1 L167.1,216.7 L167.9,212.1 L168.7,207.2 L169.3,202.1 L169.8,196.8 L170.2,191.3 L170.5,185.7 L170.7,179.9 L170.8,173.9 L170.7,167.8 L170.5,161.6 L170.2,155.3 L169.8,149.0 L169.3,142.6 L168.7,136.1 L167.9,129.6 L167.1,123.1 L166.1,116.7 L165.0,110.2 L163.9,103.8 L162.6,97.5 L161.2,91.3 L159.8,85.1 L158.2,79.1 L156.6,73.2 L154.9,67.5 L153.1,61.9 L151.3,56.5 L149.4,51.3 L147.4,46.3 L145.4,41.6 L143.3,37.0 L141.2,32.8 L139.1,28.7 L136.9,25.0 L134.7,21.5 L132.5,18.4 L130.2,15.5 L128.0,12.9 M184.3,239.5 L188.3,237.2 L192.1,234.5 L195.7,231.6 L199.2,228.3 L202.4,224.8 L205.5,221.0 L208.3,217.0 L210.9,212.7 L213.3,208.2 L215.5,203.5 L217.4,198.5 L219.1,193.4 L220.5,188.1 L221.7,182.6 L222.6,177.0 L223.2,171.3 L223.6,165.4 L223.8,159.4 L223.6,153.3 L223.2,147.2 L222.6,141.0 L221.7,134.8 L220.5,128.5 L219.1,122.3 L217.4,116.1 L215.5,109.9 L213.3,103.7 L210.9,97.7 L208.3,91.7 L205.5,85.8 L202.4,80.0 L199.2,74.3 L195.7,68.8 L192.1,63.5 L188.3,58.3 L184.3,53.4 L180.2,48.6 L175.9,44.0 L171.5,39.7 L166.9,35.7 L162.3,31.8 L157.6,28.3 L152.8,25.0 L147.9,22.0 L143.0,19.3 L138.0,16.8 L133.0,14.7 L128.0,12.9 M242.9,177.2 L245.1,171.6 L246.9,166.0 L248.4,160.2 L249.6,154.4 L250.4,148.5 L250.9,142.5 L251.1,136.5 L250.9,130.4 L250.4,124.4 L249.6,118.4 L248.4,112.4 L246.9,106.4 L245.1,100.5 L242.9,94.7 L240.5,88.9 L237.7,83.3 L234.6,77.8 L231.2,72.4 L227.6,67.2 L223.7,62.2 L219.5,57.3 L215.0,52.6 L210.4,48.2 L205.5,43.9 L200.4,39.9 L195.0,36.1 L189.6,32.6 L183.9,29.3 L178.1,26.3 L172.1,23.6 L166.0,21.2 L159.9,19.1 L153.6,17.2 L147.3,15.7 L140.9,14.5 L134.4,13.5 L128.0,12.9 M219.3,42.6 L215.3,38.6 L211.1,34.8 L206.6,31.3 L201.9,28.1 L197.0,25.1 L192.0,22.4 L186.7,20.0 L181.3,17.9 L175.8,16.1 L170.1,14.6 L164.3,13.4 L158.4,12.5 L152.4,12.0 L146.4,11.7 L140.3,11.8 L134.1,12.2 L128.0,12.9 M164.5,8.5 L160.7,7.7 L156.8,7.2 L152.8,7.0 L148.8,7.2 L144.7,7.7 L140.6,8.5 L136.4,9.7 L132.2,11.1 L128.0,12.9 M135.8,3.3 L134.7,3.7 L133.6,4.4 L132.5,5.5 L131.4,6.8 L130.3,8.5 L129.1,10.6 L128.0,12.9" clip-path="url(#i0clip128x128)" fill="none" stroke="#fff" stroke-opacity="0.55" stroke-width="3.8" stroke-linecap="round"/><circle cx="128.0" cy="128.0" r="125.0" fill="url(#i0shine)"/><circle cx="128.0" cy="128.0" r="123.1" fill="none" stroke="#08224f" stroke-width="3.8"/><path d="M50.6,96.1 L66.4,96.1 L77.5,142.5 L88.4,96.1 L104.3,96.1 L115.3,142.5 L126.4,96.1 L142.1,96.1 L127.0,160.0 L107.9,160.0 L96.3,111.4 L84.9,160.0 L65.8,160.0 L50.6,96.1 Z M197.4,98.1 L197.4,111.6 Q192.1,109.3 187.1,108.1 Q182.1,106.9 177.6,106.9 Q171.7,106.9 168.9,108.5 Q166.1,110.1 166.1,113.5 Q166.1,116.1 168.0,117.5 Q169.9,119.0 174.9,120.0 L181.9,121.4 Q192.6,123.6 197.1,127.9 Q201.6,132.3 201.6,140.4 Q201.6,150.9 195.3,156.1 Q189.0,161.3 176.1,161.3 Q170.0,161.3 163.9,160.1 Q157.8,159.0 151.7,156.7 L151.7,142.8 Q157.8,146.0 163.5,147.7 Q169.2,149.3 174.5,149.3 Q179.9,149.3 182.8,147.5 Q185.7,145.7 185.7,142.4 Q185.7,139.4 183.7,137.7 Q181.8,136.1 175.9,134.8 L169.6,133.4 Q160.0,131.4 155.5,126.9 Q151.1,122.4 151.1,114.7 Q151.1,105.2 157.3,100.0 Q163.4,94.9 175.0,94.9 Q180.3,94.9 185.8,95.7 Q191.4,96.5 197.4,98.1 Z" fill="#fff" stroke="#0b2f73" stroke-width="4.4" stroke-linejoin="round" paint-order="stroke"/><path d="M87.4,284.5 L95.7,284.5 L101.5,308.8 L107.3,284.5 L115.6,284.5 L121.4,308.8 L127.1,284.5 L135.4,284.5 L127.5,318.0 L117.5,318.0 L111.4,292.5 L105.4,318.0 L95.4,318.0 L87.4,284.5 Z M164.4,285.5 L164.4,292.6 Q161.6,291.4 159.0,290.8 Q156.3,290.1 154.0,290.1 Q150.9,290.1 149.4,291.0 Q147.9,291.8 147.9,293.6 Q147.9,295.0 148.9,295.7 Q149.9,296.5 152.6,297.0 L156.3,297.8 Q161.8,298.9 164.2,301.2 Q166.6,303.5 166.6,307.7 Q166.6,313.2 163.3,315.9 Q160.0,318.7 153.2,318.7 Q150.0,318.7 146.8,318.0 Q143.6,317.4 140.4,316.2 L140.4,308.9 Q143.6,310.7 146.6,311.5 Q149.6,312.4 152.4,312.4 Q155.2,312.4 156.7,311.4 Q158.2,310.5 158.2,308.7 Q158.2,307.2 157.2,306.3 Q156.2,305.5 153.1,304.8 L149.8,304.1 Q144.8,303.0 142.4,300.6 Q140.1,298.3 140.1,294.3 Q140.1,289.2 143.3,286.6 Q146.6,283.9 152.6,283.9 Q155.4,283.9 158.3,284.3 Q161.2,284.7 164.4,285.5 Z" fill="#0b2f73"/><defs><radialGradient id="i1sea" cx="38%" cy="32%" r="75%"><stop offset="0" stop-color="#5fb4ff"/><stop offset="0.55" stop-color="#1f6fd1"/><stop offset="1" stop-color="#0b2f73"/></radialGradient><radialGradient id="i1shine" cx="35%" cy="28%" r="40%"><stop offset="0" stop-color="#fff" stop-opacity="0.55"/><stop offset="1" stop-color="#fff" stop-opacity="0"/></radialGradient><radialGradient id="i1moon" cx="40%" cy="35%" r="70%"><stop offset="0" stop-color="#fdfdf8"/><stop offset="1" stop-color="#a3a8b1"/></radialGradient></defs><clipPath id="i1clip494x128"><circle cx="494.0" cy="128.0" r="125.0"/></clipPath><circle cx="494.0" cy="128.0" r="125.0" fill="url(#i1sea)"/><path d="M453.8,246.4 L456.4,247.2 L459.1,247.9 L461.8,248.6 L464.7,249.2 L467.6,249.8 L470.6,250.3 L473.7,250.7 L476.8,251.1 L479.9,251.4 L483.1,251.7 L486.4,251.9 L489.6,252.0 L492.9,252.1 L496.2,252.1 L499.4,252.0 L502.7,251.8 L505.9,251.6 L509.1,251.3 L512.3,251.0 L515.4,250.6 L518.4,250.1 L521.4,249.6 L524.3,249.0 L527.1,248.4 L529.8,247.7 L532.5,246.9 L535.0,246.1 M390.5,197.9 L392.3,200.0 L394.4,202.1 L396.7,204.1 L399.3,206.0 L402.2,207.9 L405.3,209.8 L408.7,211.6 L412.3,213.3 L416.1,214.9 L420.2,216.5 L424.4,217.9 L428.9,219.3 L433.5,220.6 L438.2,221.8 L443.2,222.9 L448.3,223.9 L453.4,224.7 L458.8,225.5 L464.2,226.2 L469.6,226.7 L475.2,227.2 L480.8,227.5 L486.4,227.7 L492.1,227.8 L497.8,227.8 L503.4,227.7 L509.1,227.4 L514.7,227.1 L520.2,226.6 L525.7,226.0 L531.0,225.3 L536.3,224.5 L541.5,223.5 L546.5,222.5 L551.4,221.4 L556.1,220.2 L560.6,218.9 L565.0,217.5 L569.2,216.0 L573.2,214.4 L576.9,212.7 L580.5,211.0 L583.7,209.2 L586.8,207.3 L589.6,205.4 L592.1,203.4 L594.4,201.4 L596.4,199.3 L598.1,197.2 M369.1,129.7 L369.5,132.3 L370.2,134.8 L371.3,137.3 L372.7,139.8 L374.5,142.3 L376.5,144.7 L378.9,147.1 L381.7,149.4 L384.7,151.7 L388.0,153.9 L391.6,156.0 L395.5,158.1 L399.7,160.0 L404.1,161.9 L408.8,163.7 L413.7,165.4 L418.8,167.0 L424.1,168.5 L429.6,169.9 L435.3,171.1 L441.2,172.3 L447.2,173.3 L453.3,174.2 L459.5,174.9 L465.9,175.6 L472.3,176.1 L478.8,176.5 L485.3,176.7 L491.8,176.8 L498.4,176.8 L504.9,176.7 L511.4,176.4 L517.9,175.9 L524.2,175.4 L530.5,174.7 L536.8,173.9 L542.8,173.0 L548.8,171.9 L554.6,170.7 L560.2,169.4 L565.7,168.0 L571.0,166.5 L576.0,164.9 L580.8,163.1 L585.4,161.3 L589.8,159.4 L593.8,157.4 L597.6,155.3 L601.1,153.2 L604.4,150.9 L607.3,148.6 L609.9,146.3 L612.2,143.9 L614.2,141.5 L615.8,139.0 L617.1,136.5 L618.1,134.0 L618.7,131.4 L619.0,128.9 M388.5,61.0 L387.4,63.1 L386.6,65.3 L386.0,67.5 L385.8,69.7 L385.8,71.9 L386.2,74.2 L386.8,76.4 L387.7,78.5 L389.0,80.7 L390.5,82.8 L392.3,84.9 L394.4,87.0 L396.7,89.0 L399.3,91.0 L402.2,92.9 L405.3,94.7 L408.7,96.5 L412.3,98.2 L416.1,99.9 L420.2,101.4 L424.4,102.9 L428.9,104.2 L433.5,105.5 L438.2,106.7 L443.2,107.8 L448.3,108.8 L453.4,109.7 L458.8,110.5 L464.2,111.1 L469.6,111.7 L475.2,112.1 L480.8,112.5 L486.4,112.7 L492.1,112.8 L497.8,112.7 L503.4,112.6 L509.1,112.4 L514.7,112.0 L520.2,111.5 L525.7,110.9 L531.0,110.2 L536.3,109.4 L541.5,108.5 L546.5,107.5 L551.4,106.3 L556.1,105.1 L560.6,103.8 L565.0,102.4 L569.2,100.9 L573.2,99.3 L576.9,97.7 L580.5,95.9 L583.7,94.1 L586.8,92.3 L589.6,90.3 L592.1,88.3 L594.4,86.3 L596.4,84.2 L598.1,82.1 L599.5,80.0 L600.6,77.8 L601.4,75.6 L602.0,73.4 L602.2,71.2 L602.2,69.0 L601.8,66.8 L601.2,64.6 L600.3,62.4 L599.0,60.2 M450.6,10.8 L448.3,11.7 L446.1,12.7 L444.1,13.7 L442.2,14.7 L440.4,15.8 L438.8,16.9 L437.4,18.0 L436.1,19.2 L434.9,20.4 L433.9,21.6 L433.1,22.9 L432.4,24.1 L432.0,25.4 L431.7,26.6 L431.5,27.9 L431.5,29.2 L431.7,30.5 L432.1,31.8 L432.6,33.0 L433.4,34.3 L434.2,35.5 L435.3,36.7 L436.5,37.9 L437.8,39.1 L439.3,40.2 L441.0,41.3 L442.8,42.4 L444.7,43.4 L446.8,44.4 L449.0,45.3 L451.4,46.2 L453.8,47.1 L456.4,47.9 L459.1,48.6 L461.8,49.3 L464.7,49.9 L467.6,50.5 L470.6,51.0 L473.7,51.4 L476.8,51.8 L479.9,52.1 L483.1,52.4 L486.4,52.6 L489.6,52.7 L492.9,52.8 L496.2,52.8 L499.4,52.7 L502.7,52.5 L505.9,52.3 L509.1,52.0 L512.3,51.7 L515.4,51.3 L518.4,50.8 L521.4,50.3 L524.3,49.7 L527.1,49.1 L529.8,48.4 L532.5,47.6 L535.0,46.8 L537.4,45.9 L539.7,45.0 L541.9,44.0 L543.9,43.0 L545.8,42.0 L547.6,40.9 L549.2,39.8 L550.6,38.7 L551.9,37.5 L553.1,36.3 L554.1,35.1 L554.9,33.8 L555.6,32.6 L556.0,31.3 L556.3,30.1 L556.5,28.8 L556.5,27.5 L556.3,26.2 L555.9,25.0 L555.4,23.7 L554.6,22.4 L553.8,21.2 L552.7,20.0 L551.5,18.8 L550.2,17.6 L548.7,16.5 L547.0,15.4 L545.2,14.3 L543.3,13.3 L541.2,12.3 L539.0,11.4 L536.6,10.5 M476.6,4.2 L478.7,4.1 L480.8,4.4 L482.9,5.0 L485.1,5.9 L487.3,7.2 L489.5,8.8 L491.8,10.7 L494.0,12.9 M441.8,14.4 L446.1,12.7 L450.5,11.2 L455.1,10.1 L459.7,9.3 L464.4,8.9 L469.2,8.7 L474.1,8.9 L479.0,9.4 L484.0,10.3 L489.0,11.5 L494.0,12.9 M381.5,73.5 L384.3,68.2 L387.4,63.1 L390.8,58.2 L394.4,53.5 L398.3,49.0 L402.5,44.7 L407.0,40.6 L411.6,36.8 L416.5,33.2 L421.6,29.9 L427.0,26.9 L432.4,24.1 L438.1,21.6 L443.9,19.4 L449.9,17.5 L456.0,15.9 L462.1,14.7 L468.4,13.7 L474.7,13.0 L481.1,12.7 L487.6,12.7 L494.0,12.9 M399.0,209.1 L395.5,204.7 L392.3,200.0 L389.3,195.1 L386.7,190.1 L384.3,184.8 L382.3,179.4 L380.5,173.9 L379.1,168.3 L378.0,162.5 L377.2,156.6 L376.7,150.7 L376.5,144.7 L376.7,138.7 L377.2,132.6 L378.0,126.5 L379.1,120.4 L380.5,114.4 L382.3,108.3 L384.3,102.4 L386.7,96.5 L389.3,90.6 L392.3,84.9 L395.5,79.3 L399.0,73.9 L402.7,68.6 L406.7,63.4 L410.9,58.5 L415.4,53.7 L420.1,49.1 L425.0,44.7 L430.0,40.6 L435.3,36.7 L440.7,33.1 L446.2,29.7 L451.9,26.6 L457.7,23.7 L463.6,21.2 L469.6,18.9 L475.6,17.0 L481.7,15.3 L487.9,14.0 L494.0,12.9 M453.8,246.4 L450.2,244.9 L446.8,243.1 L443.4,241.0 L440.2,238.5 L437.2,235.8 L434.3,232.8 L431.6,229.5 L429.0,225.9 L426.6,222.0 L424.4,217.9 L422.4,213.6 L420.6,209.0 L419.0,204.2 L417.6,199.1 L416.4,193.9 L415.4,188.5 L414.6,183.0 L414.1,177.2 L413.8,171.4 L413.7,165.4 L413.8,159.3 L414.1,153.2 L414.6,147.0 L415.4,140.7 L416.4,134.4 L417.6,128.0 L419.0,121.7 L420.6,115.4 L422.4,109.1 L424.4,102.9 L426.6,96.7 L429.0,90.6 L431.6,84.7 L434.3,78.8 L437.2,73.1 L440.2,67.5 L443.4,62.1 L446.8,56.9 L450.2,51.9 L453.8,47.1 L457.5,42.5 L461.3,38.1 L465.2,34.0 L469.2,30.1 L473.2,26.5 L477.3,23.2 L481.4,20.2 L485.6,17.5 L489.8,15.1 L494.0,12.9 M485.2,252.7 L484.1,252.4 L483.1,251.7 L482.2,250.7 L481.2,249.4 L480.3,247.7 L479.5,245.7 L478.7,243.4 L477.9,240.7 L477.1,237.8 L476.4,234.5 L475.8,231.0 L475.2,227.2 L474.7,223.1 L474.2,218.7 L473.7,214.1 L473.4,209.3 L473.0,204.2 L472.8,199.0 L472.6,193.5 L472.4,187.9 L472.3,182.1 L472.3,176.1 L472.3,170.0 L472.4,163.8 L472.6,157.5 L472.8,151.1 L473.0,144.7 L473.4,138.2 L473.7,131.7 L474.2,125.1 L474.7,118.6 L475.2,112.1 L475.8,105.7 L476.4,99.3 L477.1,93.0 L477.9,86.8 L478.7,80.6 L479.5,74.7 L480.3,68.8 L481.2,63.2 L482.2,57.7 L483.1,52.4 L484.1,47.3 L485.2,42.4 L486.2,37.8 L487.3,33.4 L488.4,29.3 L489.5,25.5 L490.6,21.9 L491.7,18.6 L492.9,15.6 L494.0,12.9 M513.4,251.4 L515.4,250.6 L517.3,249.5 L519.1,248.1 L520.9,246.3 L522.6,244.2 L524.2,241.8 L525.8,239.1 L527.2,236.1 L528.6,232.8 L529.9,229.2 L531.0,225.3 L532.1,221.1 L533.1,216.7 L533.9,212.1 L534.7,207.2 L535.3,202.1 L535.8,196.8 L536.2,191.3 L536.5,185.7 L536.7,179.9 L536.8,173.9 L536.7,167.8 L536.5,161.6 L536.2,155.3 L535.8,149.0 L535.3,142.6 L534.7,136.1 L533.9,129.6 L533.1,123.1 L532.1,116.7 L531.0,110.2 L529.9,103.8 L528.6,97.5 L527.2,91.3 L525.8,85.1 L524.2,79.1 L522.6,73.2 L520.9,67.5 L519.1,61.9 L517.3,56.5 L515.4,51.3 L513.4,46.3 L511.4,41.6 L509.3,37.0 L507.2,32.8 L505.1,28.7 L502.9,25.0 L500.7,21.5 L498.5,18.4 L496.2,15.5 L494.0,12.9 M550.3,239.5 L554.3,237.2 L558.1,234.5 L561.7,231.6 L565.2,228.3 L568.4,224.8 L571.5,221.0 L574.3,217.0 L576.9,212.7 L579.3,208.2 L581.5,203.5 L583.4,198.5 L585.1,193.4 L586.5,188.1 L587.7,182.6 L588.6,177.0 L589.2,171.3 L589.6,165.4 L589.8,159.4 L589.6,153.3 L589.2,147.2 L588.6,141.0 L587.7,134.8 L586.5,128.5 L585.1,122.3 L583.4,116.1 L581.5,109.9 L579.3,103.7 L576.9,97.7 L574.3,91.7 L571.5,85.8 L568.4,80.0 L565.2,74.3 L561.7,68.8 L558.1,63.5 L554.3,58.3 L550.3,53.4 L546.2,48.6 L541.9,44.0 L537.5,39.7 L532.9,35.7 L528.3,31.8 L523.6,28.3 L518.8,25.0 L513.9,22.0 L509.0,19.3 L504.0,16.8 L499.0,14.7 L494.0,12.9 M608.9,177.2 L611.1,171.6 L612.9,166.0 L614.4,160.2 L615.6,154.4 L616.4,148.5 L616.9,142.5 L617.1,136.5 L616.9,130.4 L616.4,124.4 L615.6,118.4 L614.4,112.4 L612.9,106.4 L611.1,100.5 L608.9,94.7 L606.5,88.9 L603.7,83.3 L600.6,77.8 L597.2,72.4 L593.6,67.2 L589.7,62.2 L585.5,57.3 L581.0,52.6 L576.4,48.2 L571.5,43.9 L566.4,39.9 L561.0,36.1 L555.6,32.6 L549.9,29.3 L544.1,26.3 L538.1,23.6 L532.0,21.2 L525.9,19.1 L519.6,17.2 L513.3,15.7 L506.9,14.5 L500.4,13.5 L494.0,12.9 M585.3,42.6 L581.3,38.6 L577.1,34.8 L572.6,31.3 L567.9,28.1 L563.0,25.1 L558.0,22.4 L552.7,20.0 L547.3,17.9 L541.8,16.1 L536.1,14.6 L530.3,13.4 L524.4,12.5 L518.4,12.0 L512.4,11.7 L506.3,11.8 L500.1,12.2 L494.0,12.9 M530.5,8.5 L526.7,7.7 L522.8,7.2 L518.8,7.0 L514.8,7.2 L510.7,7.7 L506.6,8.5 L502.4,9.7 L498.2,11.1 L494.0,12.9 M501.8,3.3 L500.7,3.7 L499.6,4.4 L498.5,5.5 L497.4,6.8 L496.3,8.5 L495.1,10.6 L494.0,12.9" clip-path="url(#i1clip494x128)" fill="none" stroke="#fff" stroke-opacity="0.55" stroke-width="3.8" stroke-linecap="round"/><circle cx="494.0" cy="128.0" r="125.0" fill="url(#i1shine)"/><circle cx="494.0" cy="128.0" r="123.1" fill="none" stroke="#08224f" stroke-width="3.8"/><path d="M410.1,101.7 L427.4,101.7 L439.5,129.9 L451.5,101.7 L468.8,101.7 L468.8,154.4 L456.0,154.4 L456.0,115.8 L443.8,144.3 L435.2,144.3 L423.0,115.8 L423.0,154.4 L410.1,154.4 L410.1,101.7 Z M514.1,144.8 L492.9,144.8 L489.5,154.4 L475.8,154.4 L495.4,101.7 L511.6,101.7 L531.1,154.4 L517.5,154.4 L514.1,144.8 Z M496.3,135.0 L510.7,135.0 L503.5,114.0 L496.3,135.0 Z M538.1,101.7 L560.7,101.7 Q570.8,101.7 576.1,106.1 Q581.5,110.6 581.5,118.9 Q581.5,127.2 576.1,131.6 Q570.8,136.1 560.7,136.1 L551.7,136.1 L551.7,154.4 L538.1,154.4 L538.1,101.7 Z M551.7,111.5 L551.7,126.3 L559.2,126.3 Q563.2,126.3 565.4,124.3 Q567.5,122.4 567.5,118.9 Q567.5,115.3 565.4,113.4 Q563.2,111.5 559.2,111.5 L551.7,111.5 Z" fill="#fff" stroke="#0b2f73" stroke-width="3.6" stroke-linejoin="round" paint-order="stroke"/><path d="M386.3,284.5 L394.6,284.5 L400.4,308.8 L406.2,284.5 L414.5,284.5 L420.3,308.8 L426.1,284.5 L434.3,284.5 L426.4,318.0 L416.4,318.0 L410.3,292.5 L404.3,318.0 L394.3,318.0 L386.3,284.5 Z M463.3,285.5 L463.3,292.6 Q460.5,291.4 457.9,290.8 Q455.3,290.1 452.9,290.1 Q449.8,290.1 448.3,291.0 Q446.9,291.8 446.9,293.6 Q446.9,295.0 447.9,295.7 Q448.9,296.5 451.5,297.0 L455.2,297.8 Q460.8,298.9 463.1,301.2 Q465.5,303.5 465.5,307.7 Q465.5,313.2 462.2,315.9 Q458.9,318.7 452.1,318.7 Q448.9,318.7 445.7,318.0 Q442.5,317.4 439.3,316.2 L439.3,308.9 Q442.5,310.7 445.5,311.5 Q448.5,312.4 451.3,312.4 Q454.1,312.4 455.6,311.4 Q457.1,310.5 457.1,308.7 Q457.1,307.2 456.1,306.3 Q455.1,305.5 452.0,304.8 L448.7,304.1 Q443.7,303.0 441.3,300.6 Q439.0,298.3 439.0,294.3 Q439.0,289.2 442.2,286.6 Q445.5,283.9 451.5,283.9 Q454.3,283.9 457.2,284.3 Q460.2,284.7 463.3,285.5 Z M471.3,301.5 L485.4,301.5 L485.4,308.0 L471.3,308.0 L471.3,301.5 Z M492.2,284.5 L503.2,284.5 L510.8,302.4 L518.5,284.5 L529.5,284.5 L529.5,318.0 L521.3,318.0 L521.3,293.5 L513.6,311.6 L508.1,311.6 L500.4,293.5 L500.4,318.0 L492.2,318.0 L492.2,284.5 Z M558.3,311.9 L544.8,311.9 L542.6,318.0 L533.9,318.0 L546.4,284.5 L556.7,284.5 L569.1,318.0 L560.4,318.0 L558.3,311.9 Z M546.9,305.7 L556.1,305.7 L551.5,292.3 L546.9,305.7 Z M573.5,284.5 L587.9,284.5 Q594.3,284.5 597.7,287.3 Q601.1,290.1 601.1,295.4 Q601.1,300.7 597.7,303.5 Q594.3,306.4 587.9,306.4 L582.2,306.4 L582.2,318.0 L573.5,318.0 L573.5,284.5 Z M582.2,290.7 L582.2,300.1 L587.0,300.1 Q589.5,300.1 590.9,298.9 Q592.2,297.7 592.2,295.4 Q592.2,293.2 590.9,291.9 Q589.5,290.7 587.0,290.7 L582.2,290.7 Z" fill="#0b2f73"/><defs><radialGradient id="i2sea" cx="38%" cy="32%" r="75%"><stop offset="0" stop-color="#5fb4ff"/><stop offset="0.55" stop-color="#1f6fd1"/><stop offset="1" stop-color="#0b2f73"/></radialGradient><radialGradient id="i2shine" cx="35%" cy="28%" r="40%"><stop offset="0" stop-color="#fff" stop-opacity="0.55"/><stop offset="1" stop-color="#fff" stop-opacity="0"/></radialGradient><radialGradient id="i2moon" cx="40%" cy="35%" r="70%"><stop offset="0" stop-color="#fdfdf8"/><stop offset="1" stop-color="#a3a8b1"/></radialGradient></defs><clipPath id="i2clip820x167"><circle cx="820.8" cy="167.2" r="85.0"/></clipPath><circle cx="820.8" cy="167.2" r="85.0" fill="url(#i2sea)"/><path d="M766.7,232.9 L768.2,234.0 L769.8,235.0 L771.5,236.0 L773.4,237.0 L775.4,238.0 L777.5,238.9 L779.8,239.8 L782.1,240.6 L784.6,241.3 L787.1,242.0 L789.8,242.7 L792.5,243.3 L795.3,243.9 L798.2,244.4 L801.2,244.8 L804.2,245.2 L807.2,245.5 L810.3,245.7 L813.4,245.9 L816.6,246.0 L819.7,246.1 L822.8,246.0 L826.0,246.0 L829.1,245.8 L832.2,245.6 L835.3,245.4 L838.3,245.0 L841.3,244.6 L844.2,244.2 L847.1,243.7 L849.9,243.1 L852.6,242.5 L855.2,241.8 L857.8,241.1 L860.2,240.3 L862.5,239.5 L864.7,238.6 L866.8,237.7 L868.8,236.7 L870.6,235.7 L872.3,234.7 L873.8,233.6 M735.8,168.4 L736.1,170.1 L736.6,171.9 L737.3,173.6 L738.3,175.3 L739.5,177.0 L740.9,178.6 L742.5,180.2 L744.4,181.8 L746.4,183.4 L748.7,184.8 L751.1,186.3 L753.8,187.7 L756.6,189.0 L759.6,190.3 L762.8,191.5 L766.1,192.7 L769.6,193.8 L773.2,194.8 L777.0,195.7 L780.8,196.6 L784.8,197.4 L788.9,198.0 L793.1,198.7 L797.3,199.2 L801.6,199.6 L806.0,200.0 L810.4,200.2 L814.8,200.4 L819.3,200.5 L823.7,200.4 L828.2,200.3 L832.6,200.1 L837.0,199.9 L841.3,199.5 L845.6,199.0 L849.8,198.5 L854.0,197.8 L858.0,197.1 L862.0,196.3 L865.8,195.4 L869.5,194.5 L873.1,193.4 L876.5,192.3 L879.8,191.1 L882.9,189.9 L885.9,188.6 L888.6,187.2 L891.2,185.8 L893.6,184.4 L895.8,182.8 L897.8,181.3 L899.6,179.7 L901.1,178.1 L902.5,176.4 L903.6,174.7 L904.5,173.0 L905.1,171.3 L905.5,169.6 L905.7,167.8 M766.3,102.0 L765.0,103.1 L763.9,104.3 L763.0,105.5 L762.2,106.6 L761.6,107.8 L761.1,109.1 L760.8,110.3 L760.7,111.5 L760.7,112.7 L760.9,114.0 L761.2,115.2 L761.8,116.4 L762.4,117.6 L763.3,118.8 L764.3,120.0 L765.4,121.1 L766.7,122.2 L768.2,123.3 L769.8,124.4 L771.5,125.4 L773.4,126.4 L775.4,127.3 L777.5,128.2 L779.8,129.1 L782.1,129.9 L784.6,130.7 L787.1,131.4 L789.8,132.1 L792.5,132.7 L795.3,133.2 L798.2,133.7 L801.2,134.1 L804.2,134.5 L807.2,134.8 L810.3,135.1 L813.4,135.2 L816.6,135.4 L819.7,135.4 L822.8,135.4 L826.0,135.3 L829.1,135.2 L832.2,135.0 L835.3,134.7 L838.3,134.4 L841.3,134.0 L844.2,133.5 L847.1,133.0 L849.9,132.5 L852.6,131.8 L855.2,131.2 L857.8,130.4 L860.2,129.6 L862.5,128.8 L864.7,127.9 L866.8,127.0 L868.8,126.1 L870.6,125.1 L872.3,124.0 L873.8,122.9 L875.2,121.8 L876.5,120.7 L877.6,119.6 L878.5,118.4 L879.3,117.2 L879.9,116.0 L880.4,114.8 L880.7,113.6 L880.8,112.3 L880.8,111.1 L880.6,109.9 L880.3,108.7 L879.7,107.4 L879.1,106.2 L878.2,105.1 L877.2,103.9 L876.1,102.7 M808.9,83.1 L810.3,83.0 L811.8,83.2 L813.2,83.6 L814.7,84.2 L816.2,85.1 L817.7,86.2 L819.2,87.5 L820.8,89.0 M766.3,102.0 L769.2,99.7 L772.3,97.6 L775.5,95.7 L778.8,94.0 L782.2,92.5 L785.8,91.2 L789.4,90.1 L793.1,89.2 L796.9,88.5 L800.8,88.0 L804.7,87.8 L808.7,87.8 L812.7,88.0 L816.7,88.4 L820.8,89.0 M756.1,222.4 L753.8,219.4 L751.6,216.2 L749.6,212.9 L747.8,209.5 L746.2,205.9 L744.8,202.2 L743.6,198.5 L742.6,194.6 L741.9,190.7 L741.3,186.7 L741.0,182.7 L740.9,178.6 L741.0,174.5 L741.3,170.4 L741.9,166.2 L742.6,162.1 L743.6,158.0 L744.8,153.9 L746.2,149.8 L747.8,145.8 L749.6,141.8 L751.6,138.0 L753.8,134.2 L756.1,130.4 L758.7,126.8 L761.4,123.3 L764.3,120.0 L767.3,116.7 L770.5,113.6 L773.8,110.6 L777.2,107.8 L780.8,105.2 L784.5,102.7 L788.3,100.4 L792.1,98.3 L796.1,96.3 L800.1,94.6 L804.1,93.1 L808.3,91.7 L812.4,90.6 L816.6,89.7 L820.8,89.0 M804.4,250.6 L802.8,250.1 L801.2,249.3 L799.6,248.2 L798.1,247.0 L796.7,245.5 L795.3,243.9 L794.1,242.0 L792.8,239.9 L791.7,237.6 L790.6,235.1 L789.6,232.4 L788.7,229.6 L787.9,226.6 L787.2,223.4 L786.6,220.1 L786.1,216.6 L785.6,213.0 L785.3,209.2 L785.0,205.4 L784.9,201.4 L784.8,197.4 L784.9,193.2 L785.0,189.0 L785.3,184.7 L785.6,180.4 L786.1,176.1 L786.6,171.7 L787.2,167.3 L787.9,162.9 L788.7,158.5 L789.6,154.2 L790.6,149.9 L791.7,145.6 L792.8,141.4 L794.1,137.3 L795.3,133.2 L796.7,129.2 L798.1,125.4 L799.6,121.6 L801.2,118.0 L802.8,114.5 L804.4,111.2 L806.1,108.0 L807.9,105.0 L809.6,102.1 L811.5,99.5 L813.3,97.0 L815.1,94.7 L817.0,92.6 L818.9,90.7 L820.8,89.0 M833.9,251.1 L835.3,250.6 L836.6,249.9 L837.8,248.9 L839.0,247.7 L840.2,246.3 L841.3,244.6 L842.4,242.8 L843.3,240.7 L844.3,238.5 L845.1,236.0 L845.9,233.4 L846.7,230.6 L847.3,227.6 L847.9,224.4 L848.4,221.1 L848.8,217.6 L849.2,214.0 L849.5,210.3 L849.7,206.5 L849.8,202.5 L849.8,198.5 L849.8,194.3 L849.7,190.1 L849.5,185.8 L849.2,181.5 L848.8,177.1 L848.4,172.8 L847.9,168.3 L847.3,163.9 L846.7,159.5 L845.9,155.2 L845.1,150.8 L844.3,146.5 L843.3,142.3 L842.4,138.1 L841.3,134.0 L840.2,130.0 L839.0,126.1 L837.8,122.3 L836.6,118.6 L835.3,115.1 L833.9,111.7 L832.6,108.5 L831.2,105.4 L829.7,102.5 L828.3,99.8 L826.8,97.2 L825.3,94.9 L823.8,92.7 L822.3,90.7 L820.8,89.0 M878.0,230.0 L880.6,227.4 L883.1,224.6 L885.4,221.6 L887.5,218.5 L889.4,215.3 L891.1,211.9 L892.7,208.4 L894.0,204.8 L895.2,201.1 L896.1,197.2 L896.8,193.4 L897.4,189.4 L897.7,185.4 L897.8,181.3 L897.7,177.2 L897.4,173.0 L896.8,168.9 L896.1,164.7 L895.2,160.6 L894.0,156.4 L892.7,152.3 L891.1,148.2 L889.4,144.2 L887.5,140.3 L885.4,136.4 L883.1,132.6 L880.6,128.9 L878.0,125.3 L875.2,121.8 L872.3,118.5 L869.2,115.3 L866.0,112.2 L862.7,109.3 L859.3,106.5 L855.7,103.9 L852.1,101.5 L848.4,99.2 L844.6,97.2 L840.7,95.3 L836.8,93.6 L832.8,92.2 L828.8,90.9 L824.8,89.8 L820.8,89.0 M882.8,109.2 L880.1,106.5 L877.2,103.9 L874.2,101.5 L871.0,99.3 L867.7,97.3 L864.3,95.4 L860.7,93.8 L857.0,92.4 L853.2,91.2 L849.4,90.1 L845.4,89.3 L841.4,88.7 L837.4,88.4 L833.2,88.2 L829.1,88.2 L824.9,88.5 L820.8,89.0 M835.4,83.5 L833.6,83.4 L831.9,83.5 L830.0,83.9 L828.2,84.5 L826.4,85.3 L824.5,86.3 L822.6,87.5 L820.8,89.0" clip-path="url(#i2clip820x167)" fill="none" stroke="#fff" stroke-opacity="0.55" stroke-width="4.8" stroke-linecap="round"/><circle cx="820.8" cy="167.2" r="85.0" fill="url(#i2shine)"/><circle cx="820.8" cy="167.2" r="82.6" fill="none" stroke="#08224f" stroke-width="4.8"/><circle cx="934.2" cy="53.8" r="51.2" fill="url(#i2moon)"/><circle cx="918.9" cy="42.5" r="11.3" fill="#8b929c" opacity="0.5"/><circle cx="949.6" cy="64.0" r="7.7" fill="#8b929c" opacity="0.5"/><circle cx="935.3" cy="78.3" r="5.6" fill="#8b929c" opacity="0.5"/><circle cx="913.8" cy="70.2" r="4.6" fill="#8b929c" opacity="0.5"/><circle cx="934.2" cy="53.8" r="49.1" fill="none" stroke="#5b6270" stroke-width="4.2"/><path d="M777.9,284.5 L801.2,284.5 L801.2,291.0 L786.6,291.0 L786.6,297.2 L800.4,297.2 L800.4,303.8 L786.6,303.8 L786.6,311.5 L801.7,311.5 L801.7,318.0 L777.9,318.0 L777.9,284.5 Z M809.3,284.5 L820.3,284.5 L828.0,302.4 L835.7,284.5 L846.6,284.5 L846.6,318.0 L838.5,318.0 L838.5,293.5 L830.7,311.6 L825.3,311.6 L817.5,293.5 L817.5,318.0 L809.3,318.0 L809.3,284.5 Z M855.1,284.5 L878.4,284.5 L878.4,291.0 L863.8,291.0 L863.8,297.2 L877.6,297.2 L877.6,303.8 L863.8,303.8 L863.8,311.5 L878.9,311.5 L878.9,318.0 L855.1,318.0 L855.1,284.5 Z M898.9,301.4 Q896.7,301.4 895.5,302.9 Q894.4,304.4 894.4,307.3 Q894.4,310.3 895.5,311.7 Q896.7,313.2 898.9,313.2 Q901.2,313.2 902.4,311.7 Q903.5,310.3 903.5,307.3 Q903.5,304.4 902.4,302.9 Q901.2,301.4 898.9,301.4 Z M909.6,285.3 L909.6,291.5 Q907.5,290.5 905.6,290.0 Q903.7,289.6 901.9,289.6 Q898.1,289.6 895.9,291.7 Q893.8,293.9 893.4,298.1 Q894.9,297.0 896.6,296.4 Q898.3,295.9 900.4,295.9 Q905.5,295.9 908.7,298.9 Q911.8,301.9 911.8,306.8 Q911.8,312.2 908.3,315.4 Q904.8,318.7 898.9,318.7 Q892.3,318.7 888.7,314.2 Q885.2,309.8 885.2,301.7 Q885.2,293.4 889.3,288.7 Q893.5,283.9 900.8,283.9 Q903.1,283.9 905.3,284.3 Q907.5,284.6 909.6,285.3 Z M919.2,284.5 L940.7,284.5 L940.7,290.8 L926.1,290.8 L926.1,296.0 Q927.1,295.7 928.1,295.6 Q929.1,295.4 930.1,295.4 Q936.3,295.4 939.7,298.5 Q943.1,301.6 943.1,307.1 Q943.1,312.5 939.4,315.6 Q935.7,318.7 929.1,318.7 Q926.2,318.7 923.4,318.1 Q920.6,317.6 917.9,316.4 L917.9,309.6 Q920.6,311.2 923.1,312.0 Q925.5,312.8 927.7,312.8 Q930.8,312.8 932.6,311.2 Q934.5,309.7 934.5,307.1 Q934.5,304.4 932.6,302.9 Q930.8,301.4 927.7,301.4 Q925.8,301.4 923.7,301.8 Q921.6,302.3 919.2,303.3 L919.2,284.5 Z" fill="#0b2f73"/></svg>
