<!-- WS artwork, 2026. Authorship, fonts, colours and licences: artwork/ARTWORK-RECORD.md -->
<svg xmlns="http://www.w3.org/2000/svg" width="150" height="57" viewBox="0 0 150 57"><title>WS installer header</title><defs><radialGradient id="sea" cx="38%" cy="32%" r="75%"><stop offset="0" stop-color="#5fb4ff"/><stop offset="0.55" stop-color="#1f6fd1"/><stop offset="1" stop-color="#0b2f73"/></radialGradient><radialGradient id="shine" cx="35%" cy="28%" r="40%"><stop offset="0" stop-color="#fff" stop-opacity="0.55"/><stop offset="1" stop-color="#fff" stop-opacity="0"/></radialGradient><radialGradient id="moon" cx="40%" cy="35%" r="70%"><stop offset="0" stop-color="#fdfdf8"/><stop offset="1" stop-color="#a3a8b1"/></radialGradient></defs><rect width="150" height="57" fill="#fff"/><clipPath id="clip28x28"><circle cx="28.5" cy="28.5" r="24.9"/></clipPath><circle cx="28.5" cy="28.5" r="24.9" fill="url(#sea)"/><path d="M20.5,52.1 L21.0,52.2 L21.5,52.4 L22.1,52.5 L22.7,52.6 L23.2,52.8 L23.8,52.9 L24.4,53.0 L25.1,53.0 L25.7,53.1 L26.3,53.1 L27.0,53.2 L27.6,53.2 L28.3,53.2 L28.9,53.2 L29.6,53.2 L30.2,53.2 L30.9,53.1 L31.5,53.1 L32.1,53.0 L32.8,52.9 L33.4,52.8 L34.0,52.7 L34.5,52.6 L35.1,52.5 L35.6,52.3 L36.2,52.2 L36.7,52.0 M7.9,42.4 L8.2,42.8 L8.6,43.3 L9.1,43.7 L9.6,44.0 L10.2,44.4 L10.8,44.8 L11.5,45.1 L12.2,45.5 L13.0,45.8 L13.8,46.1 L14.6,46.4 L15.5,46.7 L16.4,46.9 L17.4,47.2 L18.4,47.4 L19.4,47.6 L20.4,47.8 L21.5,47.9 L22.6,48.1 L23.6,48.2 L24.8,48.3 L25.9,48.3 L27.0,48.4 L28.1,48.4 L29.3,48.4 L30.4,48.4 L31.5,48.3 L32.6,48.2 L33.7,48.1 L34.8,48.0 L35.9,47.9 L36.9,47.7 L38.0,47.5 L39.0,47.3 L39.9,47.1 L40.9,46.9 L41.8,46.6 L42.6,46.3 L43.5,46.0 L44.3,45.7 L45.0,45.4 L45.7,45.0 L46.4,44.7 L47.0,44.3 L47.5,43.9 L48.0,43.5 L48.5,43.1 L48.9,42.7 L49.2,42.3 M3.6,28.8 L3.7,29.3 L3.8,29.9 L4.1,30.4 L4.3,30.9 L4.7,31.3 L5.1,31.8 L5.6,32.3 L6.1,32.8 L6.7,33.2 L7.4,33.7 L8.1,34.1 L8.9,34.5 L9.7,34.9 L10.6,35.3 L11.5,35.6 L12.5,36.0 L13.5,36.3 L14.6,36.6 L15.7,36.8 L16.8,37.1 L18.0,37.3 L19.2,37.5 L20.4,37.7 L21.6,37.9 L22.9,38.0 L24.2,38.1 L25.5,38.2 L26.8,38.2 L28.1,38.2 L29.4,38.2 L30.7,38.2 L32.0,38.1 L33.3,38.1 L34.5,37.9 L35.8,37.8 L37.0,37.6 L38.2,37.5 L39.4,37.2 L40.6,37.0 L41.7,36.8 L42.8,36.5 L43.8,36.2 L44.8,35.8 L45.8,35.5 L46.7,35.1 L47.6,34.8 L48.4,34.4 L49.1,33.9 L49.8,33.5 L50.5,33.1 L51.1,32.6 L51.6,32.1 L52.0,31.7 L52.4,31.2 L52.8,30.7 L53.0,30.2 L53.2,29.7 L53.3,29.2 L53.4,28.7 M7.5,15.1 L7.3,15.6 L7.1,16.0 L7.0,16.5 L6.9,16.9 L6.9,17.3 L7.0,17.8 L7.1,18.2 L7.3,18.6 L7.6,19.1 L7.9,19.5 L8.2,19.9 L8.6,20.3 L9.1,20.7 L9.6,21.1 L10.2,21.5 L10.8,21.9 L11.5,22.2 L12.2,22.6 L13.0,22.9 L13.8,23.2 L14.6,23.5 L15.5,23.8 L16.4,24.0 L17.4,24.3 L18.4,24.5 L19.4,24.7 L20.4,24.9 L21.5,25.0 L22.6,25.1 L23.6,25.2 L24.8,25.3 L25.9,25.4 L27.0,25.4 L28.1,25.5 L29.3,25.5 L30.4,25.4 L31.5,25.4 L32.6,25.3 L33.7,25.2 L34.8,25.1 L35.9,25.0 L36.9,24.8 L38.0,24.6 L39.0,24.4 L39.9,24.2 L40.9,23.9 L41.8,23.7 L42.6,23.4 L43.5,23.1 L44.3,22.8 L45.0,22.5 L45.7,22.1 L46.4,21.8 L47.0,21.4 L47.5,21.0 L48.0,20.6 L48.5,20.2 L48.9,19.8 L49.2,19.4 L49.5,18.9 L49.7,18.5 L49.9,18.1 L50.0,17.6 L50.1,17.2 L50.1,16.7 L50.0,16.3 L49.9,15.9 L49.7,15.4 L49.4,15.0 M19.9,5.1 L19.4,5.3 L19.0,5.5 L18.6,5.7 L18.2,5.9 L17.8,6.1 L17.5,6.4 L17.2,6.6 L17.0,6.8 L16.7,7.1 L16.5,7.3 L16.4,7.6 L16.2,7.8 L16.1,8.1 L16.1,8.3 L16.1,8.6 L16.1,8.8 L16.1,9.1 L16.2,9.3 L16.3,9.6 L16.4,9.8 L16.6,10.1 L16.8,10.3 L17.0,10.5 L17.3,10.8 L17.6,11.0 L17.9,11.2 L18.3,11.4 L18.7,11.6 L19.1,11.8 L19.5,12.0 L20.0,12.2 L20.5,12.4 L21.0,12.5 L21.5,12.7 L22.1,12.8 L22.7,12.9 L23.2,13.1 L23.8,13.2 L24.4,13.2 L25.1,13.3 L25.7,13.4 L26.3,13.4 L27.0,13.5 L27.6,13.5 L28.3,13.5 L28.9,13.5 L29.6,13.5 L30.2,13.5 L30.9,13.4 L31.5,13.4 L32.1,13.3 L32.8,13.2 L33.4,13.1 L34.0,13.0 L34.5,12.9 L35.1,12.8 L35.6,12.6 L36.2,12.5 L36.7,12.3 L37.1,12.1 L37.6,12.0 L38.0,11.8 L38.4,11.6 L38.8,11.4 L39.2,11.2 L39.5,10.9 L39.8,10.7 L40.0,10.5 L40.3,10.2 L40.5,10.0 L40.6,9.7 L40.8,9.5 L40.9,9.2 L40.9,9.0 L40.9,8.7 L40.9,8.5 L40.9,8.2 L40.8,8.0 L40.7,7.7 L40.6,7.5 L40.4,7.2 L40.2,7.0 L40.0,6.7 L39.7,6.5 L39.4,6.3 L39.1,6.1 L38.7,5.9 L38.3,5.7 L37.9,5.5 L37.5,5.3 L37.0,5.1 M25.0,3.8 L25.4,3.8 L25.9,3.9 L26.3,4.0 L26.7,4.2 L27.2,4.4 L27.6,4.7 L28.1,5.1 L28.5,5.6 M18.1,5.9 L19.0,5.5 L19.8,5.2 L20.7,5.0 L21.7,4.9 L22.6,4.8 L23.6,4.7 L24.5,4.8 L25.5,4.9 L26.5,5.0 L27.5,5.3 L28.5,5.6 M6.1,17.6 L6.6,16.6 L7.3,15.6 L7.9,14.6 L8.7,13.7 L9.4,12.8 L10.3,11.9 L11.2,11.1 L12.1,10.3 L13.1,9.6 L14.1,9.0 L15.1,8.4 L16.2,7.8 L17.4,7.3 L18.5,6.9 L19.7,6.5 L20.9,6.2 L22.2,5.9 L23.4,5.7 L24.7,5.6 L25.9,5.5 L27.2,5.5 L28.5,5.6 M9.6,44.7 L8.9,43.8 L8.2,42.8 L7.6,41.9 L7.1,40.9 L6.7,39.8 L6.2,38.7 L5.9,37.6 L5.6,36.5 L5.4,35.4 L5.2,34.2 L5.1,33.0 L5.1,31.8 L5.1,30.6 L5.2,29.4 L5.4,28.2 L5.6,27.0 L5.9,25.8 L6.2,24.6 L6.7,23.4 L7.1,22.2 L7.6,21.1 L8.2,19.9 L8.9,18.8 L9.6,17.7 L10.3,16.7 L11.1,15.6 L12.0,14.6 L12.8,13.7 L13.8,12.8 L14.7,11.9 L15.8,11.1 L16.8,10.3 L17.9,9.6 L19.0,8.9 L20.1,8.3 L21.3,7.7 L22.4,7.2 L23.6,6.8 L24.8,6.4 L26.1,6.1 L27.3,5.8 L28.5,5.6 M20.5,52.1 L19.8,51.8 L19.1,51.4 L18.4,51.0 L17.8,50.5 L17.2,50.0 L16.6,49.4 L16.1,48.7 L15.6,48.0 L15.1,47.2 L14.6,46.4 L14.2,45.5 L13.9,44.6 L13.6,43.7 L13.3,42.7 L13.0,41.6 L12.8,40.6 L12.7,39.4 L12.6,38.3 L12.5,37.1 L12.5,36.0 L12.5,34.7 L12.6,33.5 L12.7,32.3 L12.8,31.0 L13.0,29.8 L13.3,28.5 L13.6,27.2 L13.9,26.0 L14.2,24.7 L14.6,23.5 L15.1,22.3 L15.6,21.1 L16.1,19.9 L16.6,18.7 L17.2,17.6 L17.8,16.5 L18.4,15.4 L19.1,14.3 L19.8,13.3 L20.5,12.4 L21.2,11.5 L22.0,10.6 L22.8,9.8 L23.6,9.0 L24.4,8.3 L25.2,7.6 L26.0,7.0 L26.8,6.5 L27.7,6.0 L28.5,5.6 M26.7,53.3 L26.5,53.3 L26.3,53.1 L26.1,52.9 L26.0,52.7 L25.8,52.3 L25.6,51.9 L25.4,51.5 L25.3,51.0 L25.1,50.4 L25.0,49.7 L24.9,49.0 L24.8,48.3 L24.6,47.4 L24.5,46.6 L24.5,45.7 L24.4,44.7 L24.3,43.7 L24.3,42.6 L24.2,41.6 L24.2,40.4 L24.2,39.3 L24.2,38.1 L24.2,36.9 L24.2,35.6 L24.2,34.4 L24.3,33.1 L24.3,31.8 L24.4,30.5 L24.5,29.2 L24.5,27.9 L24.6,26.6 L24.8,25.3 L24.9,24.1 L25.0,22.8 L25.1,21.5 L25.3,20.3 L25.4,19.1 L25.6,17.9 L25.8,16.7 L26.0,15.6 L26.1,14.5 L26.3,13.4 L26.5,12.4 L26.7,11.5 L27.0,10.5 L27.2,9.7 L27.4,8.8 L27.6,8.1 L27.8,7.4 L28.0,6.7 L28.3,6.1 L28.5,5.6 M32.4,53.1 L32.8,52.9 L33.1,52.7 L33.5,52.4 L33.9,52.1 L34.2,51.7 L34.5,51.2 L34.8,50.6 L35.1,50.0 L35.4,49.4 L35.6,48.7 L35.9,47.9 L36.1,47.1 L36.3,46.2 L36.5,45.3 L36.6,44.3 L36.7,43.3 L36.8,42.2 L36.9,41.1 L37.0,40.0 L37.0,38.8 L37.0,37.6 L37.0,36.4 L37.0,35.2 L36.9,33.9 L36.8,32.7 L36.7,31.4 L36.6,30.1 L36.5,28.8 L36.3,27.5 L36.1,26.2 L35.9,25.0 L35.6,23.7 L35.4,22.4 L35.1,21.2 L34.8,20.0 L34.5,18.8 L34.2,17.6 L33.9,16.4 L33.5,15.3 L33.1,14.3 L32.8,13.2 L32.4,12.2 L32.0,11.3 L31.6,10.4 L31.1,9.5 L30.7,8.7 L30.3,8.0 L29.8,7.3 L29.4,6.7 L28.9,6.1 L28.5,5.6 M39.7,50.7 L40.5,50.3 L41.3,49.7 L42.0,49.1 L42.7,48.5 L43.3,47.8 L43.9,47.0 L44.5,46.2 L45.0,45.4 L45.5,44.5 L45.9,43.5 L46.3,42.6 L46.6,41.5 L46.9,40.5 L47.2,39.4 L47.3,38.3 L47.5,37.1 L47.6,35.9 L47.6,34.8 L47.6,33.5 L47.5,32.3 L47.3,31.1 L47.2,29.9 L46.9,28.6 L46.6,27.4 L46.3,26.1 L45.9,24.9 L45.5,23.7 L45.0,22.5 L44.5,21.3 L43.9,20.1 L43.3,18.9 L42.7,17.8 L42.0,16.7 L41.3,15.7 L40.5,14.6 L39.7,13.6 L38.9,12.7 L38.0,11.8 L37.2,10.9 L36.3,10.1 L35.3,9.3 L34.4,8.6 L33.4,8.0 L32.5,7.4 L31.5,6.8 L30.5,6.4 L29.5,5.9 L28.5,5.6 M51.4,38.3 L51.8,37.2 L52.2,36.1 L52.5,34.9 L52.7,33.8 L52.9,32.6 L53.0,31.4 L53.0,30.2 L53.0,29.0 L52.9,27.8 L52.7,26.6 L52.5,25.4 L52.2,24.2 L51.8,23.0 L51.4,21.9 L50.9,20.7 L50.4,19.6 L49.7,18.5 L49.1,17.4 L48.3,16.4 L47.6,15.4 L46.7,14.4 L45.8,13.5 L44.9,12.6 L43.9,11.7 L42.9,10.9 L41.9,10.2 L40.8,9.5 L39.6,8.8 L38.5,8.2 L37.3,7.7 L36.1,7.2 L34.8,6.8 L33.6,6.4 L32.3,6.1 L31.1,5.9 L29.8,5.7 L28.5,5.6 M46.7,11.5 L45.9,10.7 L45.0,9.9 L44.2,9.2 L43.2,8.6 L42.3,8.0 L41.2,7.5 L40.2,7.0 L39.1,6.6 L38.0,6.2 L36.9,5.9 L35.7,5.7 L34.6,5.5 L33.4,5.4 L32.2,5.3 L30.9,5.4 L29.7,5.4 L28.5,5.6 M35.8,4.7 L35.0,4.5 L34.2,4.4 L33.4,4.4 L32.6,4.4 L31.8,4.5 L31.0,4.7 L30.2,4.9 L29.3,5.2 L28.5,5.6 M30.0,3.7 L29.8,3.7 L29.6,3.9 L29.4,4.1 L29.2,4.4 L29.0,4.7 L28.7,5.1 L28.5,5.6" clip-path="url(#clip28x28)" fill="none" stroke="#fff" stroke-opacity="0.55" stroke-width="0.7" stroke-linecap="round"/><circle cx="28.5" cy="28.5" r="24.9" fill="url(#shine)"/><circle cx="28.5" cy="28.5" r="24.5" fill="none" stroke="#08224f" stroke-width="0.7"/><path d="M13.1,22.1 L16.2,22.1 L18.4,31.4 L20.6,22.1 L23.8,22.1 L26.0,31.4 L28.2,22.1 L31.3,22.1 L28.3,34.9 L24.5,34.9 L22.2,25.2 L19.9,34.9 L16.1,34.9 L13.1,22.1 Z M42.3,22.5 L42.3,25.2 Q41.3,24.8 40.3,24.5 Q39.3,24.3 38.4,24.3 Q37.2,24.3 36.6,24.6 Q36.1,24.9 36.1,25.6 Q36.1,26.1 36.5,26.4 Q36.8,26.7 37.8,26.9 L39.2,27.2 Q41.4,27.6 42.3,28.5 Q43.2,29.4 43.2,31.0 Q43.2,33.1 41.9,34.1 Q40.7,35.1 38.1,35.1 Q36.9,35.1 35.7,34.9 Q34.4,34.7 33.2,34.2 L33.2,31.4 Q34.4,32.1 35.6,32.4 Q36.7,32.7 37.8,32.7 Q38.8,32.7 39.4,32.4 Q40.0,32.0 40.0,31.4 Q40.0,30.8 39.6,30.4 Q39.2,30.1 38.1,29.9 L36.8,29.6 Q34.9,29.2 34.0,28.3 Q33.1,27.4 33.1,25.9 Q33.1,24.0 34.3,22.9 Q35.6,21.9 37.9,21.9 Q38.9,21.9 40.0,22.1 Q41.1,22.2 42.3,22.5 Z" fill="#fff" stroke="#0b2f73" stroke-width="0.9" stroke-linejoin="round" paint-order="stroke"/><path d="M60.7,8.8 L65.2,8.8 L68.4,22.0 L71.5,8.8 L76.1,8.8 L79.2,22.0 L82.3,8.8 L86.8,8.8 L82.5,27.0 L77.1,27.0 L73.8,13.1 L70.5,27.0 L65.1,27.0 L60.7,8.8 Z M102.6,9.3 L102.6,13.2 Q101.1,12.5 99.6,12.2 Q98.2,11.9 96.9,11.9 Q95.2,11.9 94.4,12.3 Q93.6,12.8 93.6,13.8 Q93.6,14.5 94.2,14.9 Q94.7,15.3 96.1,15.6 L98.1,16.0 Q101.2,16.6 102.5,17.9 Q103.8,19.1 103.8,21.4 Q103.8,24.4 102.0,25.9 Q100.2,27.4 96.5,27.4 Q94.8,27.4 93.0,27.0 Q91.3,26.7 89.5,26.0 L89.5,22.1 Q91.3,23.0 92.9,23.5 Q94.5,23.9 96.0,23.9 Q97.6,23.9 98.4,23.4 Q99.2,22.9 99.2,22.0 Q99.2,21.1 98.7,20.7 Q98.1,20.2 96.5,19.8 L94.6,19.4 Q91.9,18.8 90.6,17.6 Q89.4,16.3 89.4,14.1 Q89.4,11.4 91.1,9.9 Q92.9,8.4 96.2,8.4 Q97.7,8.4 99.3,8.7 Q100.9,8.9 102.6,9.3 Z" fill="#0b2f73"/><path d="M61.3,33.7 L62.1,33.7 L63.5,39.0 L64.8,33.7 L65.7,33.7 L67.0,39.0 L68.4,33.7 L69.2,33.7 L67.6,40.0 L66.6,40.0 L65.3,34.6 L63.9,40.0 L62.9,40.0 L61.3,33.7 Z M73.8,37.5 L73.8,37.8 L70.3,37.8 Q70.3,38.6 70.8,39.0 Q71.2,39.5 72.0,39.5 Q72.4,39.5 72.8,39.4 Q73.2,39.2 73.7,39.0 L73.7,39.8 Q73.2,39.9 72.8,40.0 Q72.4,40.1 71.9,40.1 Q70.8,40.1 70.1,39.5 Q69.5,38.8 69.5,37.7 Q69.5,36.5 70.1,35.9 Q70.7,35.2 71.8,35.2 Q72.7,35.2 73.3,35.8 Q73.8,36.4 73.8,37.5 Z M73.1,37.2 Q73.1,36.6 72.7,36.2 Q72.4,35.8 71.8,35.8 Q71.1,35.8 70.8,36.2 Q70.4,36.6 70.3,37.2 L73.1,37.2 Z M77.2,37.6 Q76.3,37.6 75.9,37.9 Q75.6,38.1 75.6,38.6 Q75.6,39.0 75.9,39.2 Q76.1,39.5 76.6,39.5 Q77.2,39.5 77.6,39.0 Q78.0,38.6 78.0,37.8 L78.0,37.6 L77.2,37.6 Z M78.8,37.3 L78.8,40.0 L78.0,40.0 L78.0,39.3 Q77.7,39.7 77.3,39.9 Q77.0,40.1 76.4,40.1 Q75.7,40.1 75.2,39.7 Q74.8,39.3 74.8,38.6 Q74.8,37.8 75.3,37.4 Q75.9,37.0 76.9,37.0 L78.0,37.0 L78.0,37.0 Q78.0,36.4 77.7,36.1 Q77.3,35.8 76.7,35.8 Q76.3,35.8 75.9,35.9 Q75.5,36.0 75.2,36.2 L75.2,35.5 Q75.6,35.3 76.0,35.3 Q76.4,35.2 76.8,35.2 Q77.8,35.2 78.3,35.7 Q78.8,36.2 78.8,37.3 Z M80.3,33.5 L81.1,33.5 L81.1,37.3 L83.4,35.3 L84.4,35.3 L81.9,37.5 L84.5,40.0 L83.5,40.0 L81.1,37.7 L81.1,40.0 L80.3,40.0 L80.3,33.5 Z M91.9,33.9 L91.9,34.8 Q91.4,34.5 91.0,34.4 Q90.5,34.3 90.1,34.3 Q89.4,34.3 89.1,34.6 Q88.7,34.8 88.7,35.3 Q88.7,35.8 88.9,36.0 Q89.2,36.2 89.9,36.3 L90.4,36.4 Q91.4,36.6 91.8,37.1 Q92.3,37.5 92.3,38.3 Q92.3,39.2 91.6,39.7 Q91.0,40.1 89.9,40.1 Q89.4,40.1 88.9,40.0 Q88.4,39.9 87.9,39.7 L87.9,38.8 Q88.4,39.1 88.9,39.3 Q89.4,39.4 89.9,39.4 Q90.6,39.4 91.0,39.1 Q91.4,38.9 91.4,38.3 Q91.4,37.9 91.1,37.6 Q90.8,37.4 90.2,37.2 L89.6,37.1 Q88.7,36.9 88.3,36.5 Q87.8,36.1 87.8,35.4 Q87.8,34.6 88.4,34.1 Q89.0,33.6 90.0,33.6 Q90.5,33.6 90.9,33.7 Q91.4,33.8 91.9,33.9 Z M93.5,35.3 L94.3,35.3 L94.3,40.0 L93.5,40.0 L93.5,35.3 Z M93.5,33.5 L94.3,33.5 L94.3,34.4 L93.5,34.4 L93.5,33.5 Z M99.0,37.6 Q99.0,36.8 98.7,36.3 Q98.3,35.8 97.7,35.8 Q97.1,35.8 96.7,36.3 Q96.4,36.8 96.4,37.6 Q96.4,38.4 96.7,38.9 Q97.1,39.4 97.7,39.4 Q98.3,39.4 98.7,38.9 Q99.0,38.4 99.0,37.6 Z M99.8,39.4 Q99.8,40.6 99.3,41.2 Q98.7,41.8 97.6,41.8 Q97.2,41.8 96.9,41.7 Q96.5,41.7 96.2,41.5 L96.2,40.8 Q96.5,41.0 96.8,41.1 Q97.2,41.2 97.5,41.2 Q98.3,41.2 98.7,40.8 Q99.0,40.4 99.0,39.6 L99.0,39.2 Q98.8,39.6 98.4,39.8 Q98.0,40.0 97.5,40.0 Q96.7,40.0 96.1,39.3 Q95.6,38.7 95.6,37.6 Q95.6,36.5 96.1,35.8 Q96.7,35.2 97.5,35.2 Q98.0,35.2 98.4,35.4 Q98.8,35.6 99.0,36.0 L99.0,35.3 L99.8,35.3 L99.8,39.4 Z M105.3,37.2 L105.3,40.0 L104.5,40.0 L104.5,37.2 Q104.5,36.5 104.3,36.2 Q104.0,35.9 103.5,35.9 Q102.9,35.9 102.5,36.3 Q102.1,36.7 102.1,37.3 L102.1,40.0 L101.4,40.0 L101.4,35.3 L102.1,35.3 L102.1,36.0 Q102.4,35.6 102.8,35.4 Q103.2,35.2 103.7,35.2 Q104.5,35.2 104.9,35.7 Q105.3,36.2 105.3,37.2 Z M109.0,37.6 Q108.0,37.6 107.7,37.9 Q107.3,38.1 107.3,38.6 Q107.3,39.0 107.6,39.2 Q107.9,39.5 108.3,39.5 Q109.0,39.5 109.4,39.0 Q109.7,38.6 109.7,37.8 L109.7,37.6 L109.0,37.6 Z M110.5,37.3 L110.5,40.0 L109.7,40.0 L109.7,39.3 Q109.5,39.7 109.1,39.9 Q108.7,40.1 108.1,40.1 Q107.4,40.1 107.0,39.7 Q106.5,39.3 106.5,38.6 Q106.5,37.8 107.1,37.4 Q107.6,37.0 108.7,37.0 L109.7,37.0 L109.7,37.0 Q109.7,36.4 109.4,36.1 Q109.0,35.8 108.4,35.8 Q108.0,35.8 107.6,35.9 Q107.2,36.0 106.9,36.2 L106.9,35.5 Q107.3,35.3 107.7,35.3 Q108.1,35.2 108.5,35.2 Q109.5,35.2 110.0,35.7 Q110.5,36.2 110.5,37.3 Z M112.1,33.5 L112.9,33.5 L112.9,40.0 L112.1,40.0 L112.1,33.5 Z" fill="#4a5160"/><path d="M62.7,44.4 L62.7,49.3 L63.7,49.3 Q65.0,49.3 65.6,48.7 Q66.2,48.1 66.2,46.9 Q66.2,45.6 65.6,45.0 Q65.0,44.4 63.7,44.4 L62.7,44.4 Z M61.8,43.7 L63.6,43.7 Q65.4,43.7 66.3,44.5 Q67.1,45.2 67.1,46.9 Q67.1,48.5 66.3,49.2 Q65.4,50.0 63.6,50.0 L61.8,50.0 L61.8,43.7 Z M68.4,45.3 L69.2,45.3 L69.2,50.0 L68.4,50.0 L68.4,45.3 Z M68.4,43.5 L69.2,43.5 L69.2,44.4 L68.4,44.4 L68.4,43.5 Z M73.9,47.6 Q73.9,46.8 73.6,46.3 Q73.2,45.8 72.6,45.8 Q72.0,45.8 71.6,46.3 Q71.3,46.8 71.3,47.6 Q71.3,48.4 71.6,48.9 Q72.0,49.4 72.6,49.4 Q73.2,49.4 73.6,48.9 Q73.9,48.4 73.9,47.6 Z M74.7,49.4 Q74.7,50.6 74.2,51.2 Q73.6,51.8 72.5,51.8 Q72.1,51.8 71.8,51.7 Q71.4,51.7 71.1,51.5 L71.1,50.8 Q71.4,51.0 71.7,51.1 Q72.1,51.2 72.4,51.2 Q73.2,51.2 73.5,50.8 Q73.9,50.4 73.9,49.6 L73.9,49.2 Q73.7,49.6 73.3,49.8 Q72.9,50.0 72.4,50.0 Q71.5,50.0 71.0,49.3 Q70.5,48.7 70.5,47.6 Q70.5,46.5 71.0,45.8 Q71.5,45.2 72.4,45.2 Q72.9,45.2 73.3,45.4 Q73.7,45.6 73.9,46.0 L73.9,45.3 L74.7,45.3 L74.7,49.4 Z M76.3,45.3 L77.1,45.3 L77.1,50.0 L76.3,50.0 L76.3,45.3 Z M76.3,43.5 L77.1,43.5 L77.1,44.4 L76.3,44.4 L76.3,43.5 Z M79.4,44.0 L79.4,45.3 L81.0,45.3 L81.0,45.9 L79.4,45.9 L79.4,48.5 Q79.4,49.0 79.6,49.2 Q79.7,49.4 80.2,49.4 L81.0,49.4 L81.0,50.0 L80.2,50.0 Q79.3,50.0 79.0,49.7 Q78.7,49.3 78.7,48.5 L78.7,45.9 L78.1,45.9 L78.1,45.3 L78.7,45.3 L78.7,44.0 L79.4,44.0 Z M84.2,47.6 Q83.2,47.6 82.9,47.9 Q82.5,48.1 82.5,48.6 Q82.5,49.0 82.8,49.2 Q83.1,49.5 83.5,49.5 Q84.2,49.5 84.6,49.0 Q84.9,48.6 84.9,47.8 L84.9,47.6 L84.2,47.6 Z M85.7,47.3 L85.7,50.0 L84.9,50.0 L84.9,49.3 Q84.7,49.7 84.3,49.9 Q83.9,50.1 83.3,50.1 Q82.6,50.1 82.2,49.7 Q81.7,49.3 81.7,48.6 Q81.7,47.8 82.3,47.4 Q82.8,47.0 83.9,47.0 L84.9,47.0 L84.9,47.0 Q84.9,46.4 84.6,46.1 Q84.2,45.8 83.6,45.8 Q83.2,45.8 82.8,45.9 Q82.4,46.0 82.1,46.2 L82.1,45.5 Q82.5,45.3 82.9,45.3 Q83.3,45.2 83.7,45.2 Q84.7,45.2 85.2,45.7 Q85.7,46.2 85.7,47.3 Z M87.3,43.5 L88.1,43.5 L88.1,50.0 L87.3,50.0 L87.3,43.5 Z M92.5,43.7 L93.7,43.7 L95.3,48.0 L96.9,43.7 L98.2,43.7 L98.2,50.0 L97.4,50.0 L97.4,44.5 L95.8,48.8 L94.9,48.8 L93.3,44.5 L93.3,50.0 L92.5,50.0 L92.5,43.7 Z M101.7,45.8 Q101.1,45.8 100.7,46.3 Q100.3,46.8 100.3,47.7 Q100.3,48.5 100.7,49.0 Q101.1,49.5 101.7,49.5 Q102.3,49.5 102.7,49.0 Q103.0,48.5 103.0,47.7 Q103.0,46.8 102.7,46.3 Q102.3,45.8 101.7,45.8 Z M101.7,45.2 Q102.7,45.2 103.3,45.8 Q103.8,46.5 103.8,47.7 Q103.8,48.8 103.3,49.5 Q102.7,50.1 101.7,50.1 Q100.7,50.1 100.1,49.5 Q99.5,48.8 99.5,47.7 Q99.5,46.5 100.1,45.8 Q100.7,45.2 101.7,45.2 Z M108.2,46.0 L108.2,43.5 L109.0,43.5 L109.0,50.0 L108.2,50.0 L108.2,49.3 Q108.0,49.7 107.6,49.9 Q107.2,50.1 106.7,50.1 Q105.9,50.1 105.3,49.4 Q104.8,48.8 104.8,47.7 Q104.8,46.5 105.3,45.9 Q105.9,45.2 106.7,45.2 Q107.2,45.2 107.6,45.4 Q108.0,45.6 108.2,46.0 Z M105.6,47.7 Q105.6,48.5 105.9,49.0 Q106.3,49.5 106.9,49.5 Q107.5,49.5 107.9,49.0 Q108.2,48.5 108.2,47.7 Q108.2,46.8 107.9,46.3 Q107.5,45.8 106.9,45.8 Q106.3,45.8 105.9,46.3 Q105.6,46.8 105.6,47.7 Z M114.6,47.5 L114.6,47.8 L111.0,47.8 Q111.1,48.6 111.5,49.0 Q112.0,49.5 112.7,49.5 Q113.2,49.5 113.6,49.4 Q114.0,49.2 114.4,49.0 L114.4,49.8 Q114.0,49.9 113.6,50.0 Q113.1,50.1 112.7,50.1 Q111.6,50.1 110.9,49.5 Q110.2,48.8 110.2,47.7 Q110.2,46.5 110.9,45.9 Q111.5,45.2 112.5,45.2 Q113.5,45.2 114.0,45.8 Q114.6,46.4 114.6,47.5 Z M113.8,47.2 Q113.8,46.6 113.5,46.2 Q113.1,45.8 112.6,45.8 Q111.9,45.8 111.5,46.2 Q111.1,46.6 111.1,47.2 L113.8,47.2 Z M118.9,45.4 L118.9,46.2 Q118.5,46.0 118.2,45.9 Q117.8,45.8 117.5,45.8 Q116.9,45.8 116.6,46.0 Q116.3,46.2 116.3,46.5 Q116.3,46.8 116.5,47.0 Q116.7,47.1 117.3,47.2 L117.6,47.3 Q118.4,47.5 118.8,47.8 Q119.1,48.1 119.1,48.7 Q119.1,49.4 118.6,49.7 Q118.1,50.1 117.2,50.1 Q116.8,50.1 116.4,50.0 Q116.0,50.0 115.5,49.8 L115.5,49.0 Q116.0,49.3 116.4,49.4 Q116.8,49.5 117.2,49.5 Q117.7,49.5 118.0,49.3 Q118.3,49.1 118.3,48.8 Q118.3,48.4 118.1,48.3 Q117.9,48.1 117.2,48.0 L116.9,47.9 Q116.2,47.7 115.9,47.4 Q115.6,47.1 115.6,46.6 Q115.6,45.9 116.0,45.5 Q116.5,45.2 117.4,45.2 Q117.8,45.2 118.2,45.2 Q118.5,45.3 118.9,45.4 Z M126.9,43.9 L126.9,44.8 Q126.4,44.5 126.0,44.4 Q125.5,44.3 125.1,44.3 Q124.4,44.3 124.1,44.6 Q123.7,44.8 123.7,45.3 Q123.7,45.8 123.9,46.0 Q124.2,46.2 124.9,46.3 L125.4,46.4 Q126.3,46.6 126.8,47.1 Q127.3,47.5 127.3,48.3 Q127.3,49.2 126.6,49.7 Q126.0,50.1 124.8,50.1 Q124.4,50.1 123.9,50.0 Q123.4,49.9 122.9,49.7 L122.9,48.8 Q123.4,49.1 123.9,49.3 Q124.4,49.4 124.8,49.4 Q125.6,49.4 126.0,49.1 Q126.4,48.9 126.4,48.3 Q126.4,47.9 126.1,47.6 Q125.8,47.4 125.2,47.2 L124.6,47.1 Q123.7,46.9 123.3,46.5 Q122.8,46.1 122.8,45.4 Q122.8,44.6 123.4,44.1 Q124.0,43.6 125.0,43.6 Q125.5,43.6 125.9,43.7 Q126.4,43.8 126.9,43.9 Z M128.5,48.1 L128.5,45.3 L129.2,45.3 L129.2,48.1 Q129.2,48.8 129.5,49.1 Q129.8,49.4 130.3,49.4 Q130.9,49.4 131.3,49.1 Q131.6,48.7 131.6,48.0 L131.6,45.3 L132.4,45.3 L132.4,50.0 L131.6,50.0 L131.6,49.3 Q131.3,49.7 131.0,49.9 Q130.6,50.1 130.1,50.1 Q129.3,50.1 128.9,49.6 Q128.5,49.1 128.5,48.1 Z M130.4,45.2 L130.4,45.2 Z M134.0,45.3 L134.8,45.3 L134.8,50.0 L134.0,50.0 L134.0,45.3 Z M134.0,43.5 L134.8,43.5 L134.8,44.4 L134.0,44.4 L134.0,43.5 Z M137.1,44.0 L137.1,45.3 L138.7,45.3 L138.7,45.9 L137.1,45.9 L137.1,48.5 Q137.1,49.0 137.3,49.2 Q137.5,49.4 137.9,49.4 L138.7,49.4 L138.7,50.0 L137.9,50.0 Q137.0,50.0 136.7,49.7 Q136.4,49.3 136.4,48.5 L136.4,45.9 L135.8,45.9 L135.8,45.3 L136.4,45.3 L136.4,44.0 L137.1,44.0 Z M143.8,47.5 L143.8,47.8 L140.2,47.8 Q140.3,48.6 140.7,49.0 Q141.1,49.5 141.9,49.5 Q142.3,49.5 142.8,49.4 Q143.2,49.2 143.6,49.0 L143.6,49.8 Q143.2,49.9 142.7,50.0 Q142.3,50.1 141.9,50.1 Q140.7,50.1 140.1,49.5 Q139.4,48.8 139.4,47.7 Q139.4,46.5 140.0,45.9 Q140.7,45.2 141.7,45.2 Q142.7,45.2 143.2,45.8 Q143.8,46.4 143.8,47.5 Z M143.0,47.2 Q143.0,46.6 142.6,46.2 Q142.3,45.8 141.7,45.8 Q141.1,45.8 140.7,46.2 Q140.3,46.6 140.2,47.2 L143.0,47.2 Z" fill="#4a5160"/></svg>
